# MagicaVoxel @ Ephtracy

# group
o 

# material
mtllib tower.mtl
usemtl palette

# normals
vn -1 0 0
vn 1 0 0
vn 0 0 1
vn 0 0 -1
vn 0 -1 0
vn 0 1 0

# texcoords
vt 0.439453 0.5
vt 0.470703 0.5
vt 0.501953 0.5
vt 0.564453 0.5
vt 0.814453 0.5

# verts
v 0 5.8 0
v 0 5.8 -6
v 0 6.2 -0.5
v 0 6.2 -1
v 0 6.2 -1.5
v 0 6.2 -2
v 0 6.2 -2.5
v 0 6.2 -3.5
v 0 6.2 -4
v 0 6.2 -4.5
v 0 6.2 -5
v 0 6.2 -5.5
v 0 6.7 0
v 0 6.7 -0.5
v 0 6.7 -1
v 0 6.7 -1.5
v 0 6.7 -2
v 0 6.7 -2.5
v 0 6.7 -3.5
v 0 6.7 -4
v 0 6.7 -4.5
v 0 6.7 -5
v 0 6.7 -5.5
v 0 6.7 -6
v 0.1 6.2 -2.8
v 0.1 6.2 -3.2
v 0.1 6.4 -2.8
v 0.1 6.4 -3.2
v 1 2 -1
v 1 2 -5
v 1 3.1 -1
v 1 3.1 -5
v 1 6.2 0
v 1 6.2 -0.5
v 1 6.2 -5.5
v 1 6.2 -6
v 1 6.7 0
v 1 6.7 -0.5
v 1 6.7 -5.5
v 1 6.7 -6
v 1.2 3.1 -1.2
v 1.2 3.1 -4.8
v 1.2 3.5 -1.2
v 1.2 3.5 -4.8
v 1.6 3.5 -1.6
v 1.6 3.5 -4.4
v 1.6 4.3 -1.6
v 1.6 4.3 -4.4
v 2 6.2 0
v 2 6.2 -0.5
v 2 6.2 -5.5
v 2 6.2 -6
v 2 6.7 0
v 2 6.7 -0.5
v 2 6.7 -5.5
v 2 6.7 -6
v 2.3 4.3 -2.3
v 2.3 4.3 -3.7
v 2.3 5.8 -2.3
v 2.3 5.8 -3.7
v 2.8 6.2 -0.1
v 2.8 6.2 -0.3
v 2.8 6.2 -5.7
v 2.8 6.2 -5.9
v 2.8 6.4 -0.1
v 2.8 6.4 -0.3
v 2.8 6.4 -5.7
v 2.8 6.4 -5.9
v 3.5 6.2 0
v 3.5 6.2 -0.5
v 3.5 6.2 -5.5
v 3.5 6.2 -6
v 3.5 6.7 0
v 3.5 6.7 -0.5
v 3.5 6.7 -5.5
v 3.5 6.7 -6
v 4.5 6.2 0
v 4.5 6.2 -0.5
v 4.5 6.2 -5.5
v 4.5 6.2 -6
v 4.5 6.7 0
v 4.5 6.7 -0.5
v 4.5 6.7 -5.5
v 4.5 6.7 -6
v 5.5 5.9 -0.5
v 5.5 5.9 -5.5
v 5.5 6.2 0
v 5.5 6.2 -0.5
v 5.5 6.2 -1
v 5.5 6.2 -1.5
v 5.5 6.2 -2
v 5.5 6.2 -2.5
v 5.5 6.2 -3.5
v 5.5 6.2 -4
v 5.5 6.2 -4.5
v 5.5 6.2 -5
v 5.5 6.2 -5.5
v 5.5 6.2 -6
v 5.5 6.7 0
v 5.5 6.7 -0.5
v 5.5 6.7 -1
v 5.5 6.7 -1.5
v 5.5 6.7 -2
v 5.5 6.7 -2.5
v 5.5 6.7 -3.5
v 5.5 6.7 -4
v 5.5 6.7 -4.5
v 5.5 6.7 -5
v 5.5 6.7 -5.5
v 5.5 6.7 -6
v 5.7 6.2 -2.8
v 5.7 6.2 -3.2
v 5.7 6.4 -2.8
v 5.7 6.4 -3.2
v 0.3 6.2 -2.8
v 0.3 6.2 -3.2
v 0.3 6.4 -2.8
v 0.3 6.4 -3.2
v 0.5 5.9 -0.5
v 0.5 5.9 -5.5
v 0.5 6.2 0
v 0.5 6.2 -0.5
v 0.5 6.2 -1
v 0.5 6.2 -1.5
v 0.5 6.2 -2
v 0.5 6.2 -2.5
v 0.5 6.2 -3.5
v 0.5 6.2 -4
v 0.5 6.2 -4.5
v 0.5 6.2 -5
v 0.5 6.2 -5.5
v 0.5 6.2 -6
v 0.5 6.7 0
v 0.5 6.7 -0.5
v 0.5 6.7 -1
v 0.5 6.7 -1.5
v 0.5 6.7 -2
v 0.5 6.7 -2.5
v 0.5 6.7 -3.5
v 0.5 6.7 -4
v 0.5 6.7 -4.5
v 0.5 6.7 -5
v 0.5 6.7 -5.5
v 0.5 6.7 -6
v 1.5 6.2 0
v 1.5 6.2 -0.5
v 1.5 6.2 -5.5
v 1.5 6.2 -6
v 1.5 6.7 0
v 1.5 6.7 -0.5
v 1.5 6.7 -5.5
v 1.5 6.7 -6
v 2.5 6.2 0
v 2.5 6.2 -0.5
v 2.5 6.2 -5.5
v 2.5 6.2 -6
v 2.5 6.7 0
v 2.5 6.7 -0.5
v 2.5 6.7 -5.5
v 2.5 6.7 -6
v 3.2 6.2 -0.1
v 3.2 6.2 -0.3
v 3.2 6.2 -5.7
v 3.2 6.2 -5.9
v 3.2 6.4 -0.1
v 3.2 6.4 -0.3
v 3.2 6.4 -5.7
v 3.2 6.4 -5.9
v 3.7 4.3 -2.3
v 3.7 4.3 -3.7
v 3.7 5.8 -2.3
v 3.7 5.8 -3.7
v 4 6.2 0
v 4 6.2 -0.5
v 4 6.2 -5.5
v 4 6.2 -6
v 4 6.7 0
v 4 6.7 -0.5
v 4 6.7 -5.5
v 4 6.7 -6
v 4.4 3.5 -1.6
v 4.4 3.5 -4.4
v 4.4 4.3 -1.6
v 4.4 4.3 -4.4
v 4.8 3.1 -1.2
v 4.8 3.1 -4.8
v 4.8 3.5 -1.2
v 4.8 3.5 -4.8
v 5 2 -1
v 5 2 -5
v 5 3.1 -1
v 5 3.1 -5
v 5 6.2 0
v 5 6.2 -0.5
v 5 6.2 -5.5
v 5 6.2 -6
v 5 6.7 0
v 5 6.7 -0.5
v 5 6.7 -5.5
v 5 6.7 -6
v 5.9 6.2 -2.8
v 5.9 6.2 -3.2
v 5.9 6.4 -2.8
v 5.9 6.4 -3.2
v 6 5.8 0
v 6 5.8 -6
v 6 6.2 -0.5
v 6 6.2 -1
v 6 6.2 -1.5
v 6 6.2 -2
v 6 6.2 -2.5
v 6 6.2 -3.5
v 6 6.2 -4
v 6 6.2 -4.5
v 6 6.2 -5
v 6 6.2 -5.5
v 6 6.7 0
v 6 6.7 -0.5
v 6 6.7 -1
v 6 6.7 -1.5
v 6 6.7 -2
v 6 6.7 -2.5
v 6 6.7 -3.5
v 6 6.7 -4
v 6 6.7 -4.5
v 6 6.7 -5
v 6 6.7 -5.5
v 6 6.7 -6
v 0 5.8 0
v 0 6.7 0
v 0.5 6.2 0
v 0.5 6.7 0
v 1 6.2 0
v 1 6.7 0
v 1.5 6.2 0
v 1.5 6.7 0
v 2 6.2 0
v 2 6.7 0
v 2.5 6.2 0
v 2.5 6.7 0
v 3.5 6.2 0
v 3.5 6.7 0
v 4 6.2 0
v 4 6.7 0
v 4.5 6.2 0
v 4.5 6.7 0
v 5 6.2 0
v 5 6.7 0
v 5.5 6.2 0
v 5.5 6.7 0
v 6 5.8 0
v 6 6.7 0
v 2.8 6.2 -0.1
v 2.8 6.4 -0.1
v 3.2 6.2 -0.1
v 3.2 6.4 -0.1
v 0 6.2 -1
v 0 6.7 -1
v 0.5 6.2 -1
v 0.5 6.7 -1
v 1 2 -1
v 1 3.1 -1
v 5 2 -1
v 5 3.1 -1
v 5.5 6.2 -1
v 5.5 6.7 -1
v 6 6.2 -1
v 6 6.7 -1
v 1.2 3.1 -1.2
v 1.2 3.5 -1.2
v 4.8 3.1 -1.2
v 4.8 3.5 -1.2
v 1.6 3.5 -1.6
v 1.6 4.3 -1.6
v 4.4 3.5 -1.6
v 4.4 4.3 -1.6
v 0 6.2 -2
v 0 6.7 -2
v 0.5 6.2 -2
v 0.5 6.7 -2
v 5.5 6.2 -2
v 5.5 6.7 -2
v 6 6.2 -2
v 6 6.7 -2
v 2.3 4.3 -2.3
v 2.3 5.8 -2.3
v 3.7 4.3 -2.3
v 3.7 5.8 -2.3
v 0.1 6.2 -2.8
v 0.1 6.4 -2.8
v 0.3 6.2 -2.8
v 0.3 6.4 -2.8
v 5.7 6.2 -2.8
v 5.7 6.4 -2.8
v 5.9 6.2 -2.8
v 5.9 6.4 -2.8
v 0 6.2 -3.5
v 0 6.7 -3.5
v 0.5 6.2 -3.5
v 0.5 6.7 -3.5
v 5.5 6.2 -3.5
v 5.5 6.7 -3.5
v 6 6.2 -3.5
v 6 6.7 -3.5
v 0 6.2 -4.5
v 0 6.7 -4.5
v 0.5 6.2 -4.5
v 0.5 6.7 -4.5
v 5.5 6.2 -4.5
v 5.5 6.7 -4.5
v 6 6.2 -4.5
v 6 6.7 -4.5
v 0 6.2 -5.5
v 0 6.7 -5.5
v 0.5 5.9 -5.5
v 0.5 6.2 -5.5
v 0.5 6.7 -5.5
v 1 6.2 -5.5
v 1 6.7 -5.5
v 1.5 6.2 -5.5
v 1.5 6.7 -5.5
v 2 6.2 -5.5
v 2 6.7 -5.5
v 2.5 6.2 -5.5
v 2.5 6.7 -5.5
v 3.5 6.2 -5.5
v 3.5 6.7 -5.5
v 4 6.2 -5.5
v 4 6.7 -5.5
v 4.5 6.2 -5.5
v 4.5 6.7 -5.5
v 5 6.2 -5.5
v 5 6.7 -5.5
v 5.5 5.9 -5.5
v 5.5 6.2 -5.5
v 5.5 6.7 -5.5
v 6 6.2 -5.5
v 6 6.7 -5.5
v 2.8 6.2 -5.7
v 2.8 6.4 -5.7
v 3.2 6.2 -5.7
v 3.2 6.4 -5.7
v 2.8 6.2 -0.3
v 2.8 6.4 -0.3
v 3.2 6.2 -0.3
v 3.2 6.4 -0.3
v 0 6.2 -0.5
v 0 6.7 -0.5
v 0.5 5.9 -0.5
v 0.5 6.2 -0.5
v 0.5 6.7 -0.5
v 1 6.2 -0.5
v 1 6.7 -0.5
v 1.5 6.2 -0.5
v 1.5 6.7 -0.5
v 2 6.2 -0.5
v 2 6.7 -0.5
v 2.5 6.2 -0.5
v 2.5 6.7 -0.5
v 3.5 6.2 -0.5
v 3.5 6.7 -0.5
v 4 6.2 -0.5
v 4 6.7 -0.5
v 4.5 6.2 -0.5
v 4.5 6.7 -0.5
v 5 6.2 -0.5
v 5 6.7 -0.5
v 5.5 5.9 -0.5
v 5.5 6.2 -0.5
v 5.5 6.7 -0.5
v 6 6.2 -0.5
v 6 6.7 -0.5
v 0 6.2 -1.5
v 0 6.7 -1.5
v 0.5 6.2 -1.5
v 0.5 6.7 -1.5
v 5.5 6.2 -1.5
v 5.5 6.7 -1.5
v 6 6.2 -1.5
v 6 6.7 -1.5
v 0 6.2 -2.5
v 0 6.7 -2.5
v 0.5 6.2 -2.5
v 0.5 6.7 -2.5
v 5.5 6.2 -2.5
v 5.5 6.7 -2.5
v 6 6.2 -2.5
v 6 6.7 -2.5
v 0.1 6.2 -3.2
v 0.1 6.4 -3.2
v 0.3 6.2 -3.2
v 0.3 6.4 -3.2
v 5.7 6.2 -3.2
v 5.7 6.4 -3.2
v 5.9 6.2 -3.2
v 5.9 6.4 -3.2
v 2.3 4.3 -3.7
v 2.3 5.8 -3.7
v 3.7 4.3 -3.7
v 3.7 5.8 -3.7
v 0 6.2 -4
v 0 6.7 -4
v 0.5 6.2 -4
v 0.5 6.7 -4
v 5.5 6.2 -4
v 5.5 6.7 -4
v 6 6.2 -4
v 6 6.7 -4
v 1.6 3.5 -4.4
v 1.6 4.3 -4.4
v 4.4 3.5 -4.4
v 4.4 4.3 -4.4
v 1.2 3.1 -4.8
v 1.2 3.5 -4.8
v 4.8 3.1 -4.8
v 4.8 3.5 -4.8
v 0 6.2 -5
v 0 6.7 -5
v 0.5 6.2 -5
v 0.5 6.7 -5
v 1 2 -5
v 1 3.1 -5
v 5 2 -5
v 5 3.1 -5
v 5.5 6.2 -5
v 5.5 6.7 -5
v 6 6.2 -5
v 6 6.7 -5
v 2.8 6.2 -5.9
v 2.8 6.4 -5.9
v 3.2 6.2 -5.9
v 3.2 6.4 -5.9
v 0 5.8 -6
v 0 6.7 -6
v 0.5 6.2 -6
v 0.5 6.7 -6
v 1 6.2 -6
v 1 6.7 -6
v 1.5 6.2 -6
v 1.5 6.7 -6
v 2 6.2 -6
v 2 6.7 -6
v 2.5 6.2 -6
v 2.5 6.7 -6
v 3.5 6.2 -6
v 3.5 6.7 -6
v 4 6.2 -6
v 4 6.7 -6
v 4.5 6.2 -6
v 4.5 6.7 -6
v 5 6.2 -6
v 5 6.7 -6
v 5.5 6.2 -6
v 5.5 6.7 -6
v 6 5.8 -6
v 6 6.7 -6
v 1 2 -1
v 5 2 -1
v 1 2 -5
v 5 2 -5
v 0 5.8 0
v 6 5.8 0
v 2.3 5.8 -2.3
v 3.7 5.8 -2.3
v 2.3 5.8 -3.7
v 3.7 5.8 -3.7
v 0 5.8 -6
v 6 5.8 -6
v 1 3.1 -1
v 5 3.1 -1
v 1.2 3.1 -1.2
v 4.8 3.1 -1.2
v 1.2 3.1 -4.8
v 4.8 3.1 -4.8
v 1 3.1 -5
v 5 3.1 -5
v 1.2 3.5 -1.2
v 4.8 3.5 -1.2
v 1.6 3.5 -1.6
v 4.4 3.5 -1.6
v 1.6 3.5 -4.4
v 4.4 3.5 -4.4
v 1.2 3.5 -4.8
v 4.8 3.5 -4.8
v 1.6 4.3 -1.6
v 4.4 4.3 -1.6
v 2.3 4.3 -2.3
v 3.7 4.3 -2.3
v 2.3 4.3 -3.7
v 3.7 4.3 -3.7
v 1.6 4.3 -4.4
v 4.4 4.3 -4.4
v 0.5 5.9 -0.5
v 5.5 5.9 -0.5
v 2.3 5.9 -2.3
v 3.7 5.9 -2.3
v 2.3 5.9 -3.7
v 3.7 5.9 -3.7
v 0.5 5.9 -5.5
v 5.5 5.9 -5.5
v 0.5 6.2 0
v 1 6.2 0
v 1.5 6.2 0
v 2 6.2 0
v 2.5 6.2 0
v 3.5 6.2 0
v 4 6.2 0
v 4.5 6.2 0
v 5 6.2 0
v 5.5 6.2 0
v 2.8 6.2 -0.1
v 3.2 6.2 -0.1
v 2.8 6.2 -0.3
v 3.2 6.2 -0.3
v 0 6.2 -0.5
v 0.5 6.2 -0.5
v 1 6.2 -0.5
v 1.5 6.2 -0.5
v 2 6.2 -0.5
v 2.5 6.2 -0.5
v 3.5 6.2 -0.5
v 4 6.2 -0.5
v 4.5 6.2 -0.5
v 5 6.2 -0.5
v 5.5 6.2 -0.5
v 6 6.2 -0.5
v 0 6.2 -1
v 0.5 6.2 -1
v 5.5 6.2 -1
v 6 6.2 -1
v 0 6.2 -1.5
v 0.5 6.2 -1.5
v 5.5 6.2 -1.5
v 6 6.2 -1.5
v 0 6.2 -2
v 0.5 6.2 -2
v 5.5 6.2 -2
v 6 6.2 -2
v 0 6.2 -2.5
v 0.5 6.2 -2.5
v 5.5 6.2 -2.5
v 6 6.2 -2.5
v 0.1 6.2 -2.8
v 0.3 6.2 -2.8
v 5.7 6.2 -2.8
v 5.9 6.2 -2.8
v 0.1 6.2 -3.2
v 0.3 6.2 -3.2
v 5.7 6.2 -3.2
v 5.9 6.2 -3.2
v 0 6.2 -3.5
v 0.5 6.2 -3.5
v 5.5 6.2 -3.5
v 6 6.2 -3.5
v 0 6.2 -4
v 0.5 6.2 -4
v 5.5 6.2 -4
v 6 6.2 -4
v 0 6.2 -4.5
v 0.5 6.2 -4.5
v 5.5 6.2 -4.5
v 6 6.2 -4.5
v 0 6.2 -5
v 0.5 6.2 -5
v 5.5 6.2 -5
v 6 6.2 -5
v 0 6.2 -5.5
v 0.5 6.2 -5.5
v 1 6.2 -5.5
v 1.5 6.2 -5.5
v 2 6.2 -5.5
v 2.5 6.2 -5.5
v 3.5 6.2 -5.5
v 4 6.2 -5.5
v 4.5 6.2 -5.5
v 5 6.2 -5.5
v 5.5 6.2 -5.5
v 6 6.2 -5.5
v 2.8 6.2 -5.7
v 3.2 6.2 -5.7
v 2.8 6.2 -5.9
v 3.2 6.2 -5.9
v 0.5 6.2 -6
v 1 6.2 -6
v 1.5 6.2 -6
v 2 6.2 -6
v 2.5 6.2 -6
v 3.5 6.2 -6
v 4 6.2 -6
v 4.5 6.2 -6
v 5 6.2 -6
v 5.5 6.2 -6
v 2.8 6.4 -0.1
v 3.2 6.4 -0.1
v 2.8 6.4 -0.3
v 3.2 6.4 -0.3
v 0.1 6.4 -2.8
v 0.3 6.4 -2.8
v 5.7 6.4 -2.8
v 5.9 6.4 -2.8
v 0.1 6.4 -3.2
v 0.3 6.4 -3.2
v 5.7 6.4 -3.2
v 5.9 6.4 -3.2
v 2.8 6.4 -5.7
v 3.2 6.4 -5.7
v 2.8 6.4 -5.9
v 3.2 6.4 -5.9
v 0 6.7 0
v 0.5 6.7 0
v 1 6.7 0
v 1.5 6.7 0
v 2 6.7 0
v 2.5 6.7 0
v 3.5 6.7 0
v 4 6.7 0
v 4.5 6.7 0
v 5 6.7 0
v 5.5 6.7 0
v 6 6.7 0
v 0 6.7 -0.5
v 0.5 6.7 -0.5
v 1 6.7 -0.5
v 1.5 6.7 -0.5
v 2 6.7 -0.5
v 2.5 6.7 -0.5
v 3.5 6.7 -0.5
v 4 6.7 -0.5
v 4.5 6.7 -0.5
v 5 6.7 -0.5
v 5.5 6.7 -0.5
v 6 6.7 -0.5
v 0 6.7 -1
v 0.5 6.7 -1
v 5.5 6.7 -1
v 6 6.7 -1
v 0 6.7 -1.5
v 0.5 6.7 -1.5
v 5.5 6.7 -1.5
v 6 6.7 -1.5
v 0 6.7 -2
v 0.5 6.7 -2
v 5.5 6.7 -2
v 6 6.7 -2
v 0 6.7 -2.5
v 0.5 6.7 -2.5
v 5.5 6.7 -2.5
v 6 6.7 -2.5
v 0 6.7 -3.5
v 0.5 6.7 -3.5
v 5.5 6.7 -3.5
v 6 6.7 -3.5
v 0 6.7 -4
v 0.5 6.7 -4
v 5.5 6.7 -4
v 6 6.7 -4
v 0 6.7 -4.5
v 0.5 6.7 -4.5
v 5.5 6.7 -4.5
v 6 6.7 -4.5
v 0 6.7 -5
v 0.5 6.7 -5
v 5.5 6.7 -5
v 6 6.7 -5
v 0 6.7 -5.5
v 0.5 6.7 -5.5
v 1 6.7 -5.5
v 1.5 6.7 -5.5
v 2 6.7 -5.5
v 2.5 6.7 -5.5
v 3.5 6.7 -5.5
v 4 6.7 -5.5
v 4.5 6.7 -5.5
v 5 6.7 -5.5
v 5.5 6.7 -5.5
v 6 6.7 -5.5
v 0 6.7 -6
v 0.5 6.7 -6
v 1 6.7 -6
v 1.5 6.7 -6
v 2 6.7 -6
v 2.5 6.7 -6
v 3.5 6.7 -6
v 4 6.7 -6
v 4.5 6.7 -6
v 5 6.7 -6
v 5.5 6.7 -6
v 6 6.7 -6

# faces
f 3/2/1 2/2/1 1/2/1
f 4/2/1 2/2/1 3/2/1
f 5/2/1 2/2/1 4/2/1
f 6/2/1 2/2/1 5/2/1
f 7/2/1 2/2/1 6/2/1
f 8/2/1 2/2/1 7/2/1
f 9/2/1 2/2/1 8/2/1
f 10/2/1 2/2/1 9/2/1
f 11/2/1 2/2/1 10/2/1
f 12/2/1 2/2/1 11/2/1
f 13/2/1 3/2/1 1/2/1
f 14/2/1 3/2/1 13/2/1
f 15/2/1 5/2/1 4/2/1
f 16/2/1 5/2/1 15/2/1
f 17/2/1 7/2/1 6/2/1
f 18/2/1 7/2/1 17/2/1
f 19/2/1 9/2/1 8/2/1
f 20/2/1 9/2/1 19/2/1
f 21/2/1 11/2/1 10/2/1
f 22/2/1 11/2/1 21/2/1
f 23/2/1 2/2/1 12/2/1
f 24/2/1 2/2/1 23/2/1
f 27/2/1 26/2/1 25/2/1
f 28/2/1 26/2/1 27/2/1
f 31/5/1 30/5/1 29/5/1
f 32/5/1 30/5/1 31/5/1
f 37/2/1 34/2/1 33/2/1
f 38/2/1 34/2/1 37/2/1
f 39/2/1 36/2/1 35/2/1
f 40/2/1 36/2/1 39/2/1
f 43/4/1 42/4/1 41/4/1
f 44/4/1 42/4/1 43/4/1
f 47/3/1 46/3/1 45/3/1
f 48/3/1 46/3/1 47/3/1
f 53/2/1 50/2/1 49/2/1
f 54/2/1 50/2/1 53/2/1
f 55/2/1 52/2/1 51/2/1
f 56/2/1 52/2/1 55/2/1
f 59/1/1 58/1/1 57/1/1
f 60/1/1 58/1/1 59/1/1
f 65/2/1 62/2/1 61/2/1
f 66/2/1 62/2/1 65/2/1
f 67/2/1 64/2/1 63/2/1
f 68/2/1 64/2/1 67/2/1
f 73/2/1 70/2/1 69/2/1
f 74/2/1 70/2/1 73/2/1
f 75/2/1 72/2/1 71/2/1
f 76/2/1 72/2/1 75/2/1
f 81/2/1 78/2/1 77/2/1
f 82/2/1 78/2/1 81/2/1
f 83/2/1 80/2/1 79/2/1
f 84/2/1 80/2/1 83/2/1
f 88/2/1 86/2/1 85/2/1
f 89/2/1 86/2/1 88/2/1
f 90/2/1 86/2/1 89/2/1
f 91/2/1 86/2/1 90/2/1
f 92/2/1 86/2/1 91/2/1
f 93/2/1 86/2/1 92/2/1
f 94/2/1 86/2/1 93/2/1
f 95/2/1 86/2/1 94/2/1
f 96/2/1 86/2/1 95/2/1
f 97/2/1 86/2/1 96/2/1
f 99/2/1 88/2/1 87/2/1
f 100/2/1 88/2/1 99/2/1
f 101/2/1 90/2/1 89/2/1
f 102/2/1 90/2/1 101/2/1
f 103/2/1 92/2/1 91/2/1
f 104/2/1 92/2/1 103/2/1
f 105/2/1 94/2/1 93/2/1
f 106/2/1 94/2/1 105/2/1
f 107/2/1 96/2/1 95/2/1
f 108/2/1 96/2/1 107/2/1
f 109/2/1 98/2/1 97/2/1
f 110/2/1 98/2/1 109/2/1
f 113/2/1 112/2/1 111/2/1
f 114/2/1 112/2/1 113/2/1
f 115/2/2 116/2/2 117/2/2
f 117/2/2 116/2/2 118/2/2
f 119/2/2 120/2/2 122/2/2
f 122/2/2 120/2/2 123/2/2
f 123/2/2 120/2/2 124/2/2
f 124/2/2 120/2/2 125/2/2
f 125/2/2 120/2/2 126/2/2
f 126/2/2 120/2/2 127/2/2
f 127/2/2 120/2/2 128/2/2
f 128/2/2 120/2/2 129/2/2
f 129/2/2 120/2/2 130/2/2
f 130/2/2 120/2/2 131/2/2
f 121/2/2 122/2/2 133/2/2
f 133/2/2 122/2/2 134/2/2
f 123/2/2 124/2/2 135/2/2
f 135/2/2 124/2/2 136/2/2
f 125/2/2 126/2/2 137/2/2
f 137/2/2 126/2/2 138/2/2
f 127/2/2 128/2/2 139/2/2
f 139/2/2 128/2/2 140/2/2
f 129/2/2 130/2/2 141/2/2
f 141/2/2 130/2/2 142/2/2
f 131/2/2 132/2/2 143/2/2
f 143/2/2 132/2/2 144/2/2
f 145/2/2 146/2/2 149/2/2
f 149/2/2 146/2/2 150/2/2
f 147/2/2 148/2/2 151/2/2
f 151/2/2 148/2/2 152/2/2
f 153/2/2 154/2/2 157/2/2
f 157/2/2 154/2/2 158/2/2
f 155/2/2 156/2/2 159/2/2
f 159/2/2 156/2/2 160/2/2
f 161/2/2 162/2/2 165/2/2
f 165/2/2 162/2/2 166/2/2
f 163/2/2 164/2/2 167/2/2
f 167/2/2 164/2/2 168/2/2
f 169/1/2 170/1/2 171/1/2
f 171/1/2 170/1/2 172/1/2
f 173/2/2 174/2/2 177/2/2
f 177/2/2 174/2/2 178/2/2
f 175/2/2 176/2/2 179/2/2
f 179/2/2 176/2/2 180/2/2
f 181/3/2 182/3/2 183/3/2
f 183/3/2 182/3/2 184/3/2
f 185/4/2 186/4/2 187/4/2
f 187/4/2 186/4/2 188/4/2
f 189/5/2 190/5/2 191/5/2
f 191/5/2 190/5/2 192/5/2
f 193/2/2 194/2/2 197/2/2
f 197/2/2 194/2/2 198/2/2
f 195/2/2 196/2/2 199/2/2
f 199/2/2 196/2/2 200/2/2
f 201/2/2 202/2/2 203/2/2
f 203/2/2 202/2/2 204/2/2
f 205/2/2 206/2/2 207/2/2
f 207/2/2 206/2/2 208/2/2
f 208/2/2 206/2/2 209/2/2
f 209/2/2 206/2/2 210/2/2
f 210/2/2 206/2/2 211/2/2
f 211/2/2 206/2/2 212/2/2
f 212/2/2 206/2/2 213/2/2
f 213/2/2 206/2/2 214/2/2
f 214/2/2 206/2/2 215/2/2
f 215/2/2 206/2/2 216/2/2
f 205/2/2 207/2/2 217/2/2
f 217/2/2 207/2/2 218/2/2
f 208/2/2 209/2/2 219/2/2
f 219/2/2 209/2/2 220/2/2
f 210/2/2 211/2/2 221/2/2
f 221/2/2 211/2/2 222/2/2
f 212/2/2 213/2/2 223/2/2
f 223/2/2 213/2/2 224/2/2
f 214/2/2 215/2/2 225/2/2
f 225/2/2 215/2/2 226/2/2
f 216/2/2 206/2/2 227/2/2
f 227/2/2 206/2/2 228/2/2
f 231/2/3 230/2/3 229/2/3
f 232/2/3 230/2/3 231/2/3
f 233/2/3 231/2/3 229/2/3
f 235/2/3 233/2/3 229/2/3
f 235/2/3 234/2/3 233/2/3
f 236/2/3 234/2/3 235/2/3
f 237/2/3 235/2/3 229/2/3
f 239/2/3 237/2/3 229/2/3
f 239/2/3 238/2/3 237/2/3
f 240/2/3 238/2/3 239/2/3
f 241/2/3 239/2/3 229/2/3
f 243/2/3 241/2/3 229/2/3
f 243/2/3 242/2/3 241/2/3
f 244/2/3 242/2/3 243/2/3
f 245/2/3 243/2/3 229/2/3
f 247/2/3 245/2/3 229/2/3
f 247/2/3 246/2/3 245/2/3
f 248/2/3 246/2/3 247/2/3
f 249/2/3 247/2/3 229/2/3
f 251/2/3 249/2/3 229/2/3
f 251/2/3 250/2/3 249/2/3
f 252/2/3 250/2/3 251/2/3
f 255/2/3 254/2/3 253/2/3
f 256/2/3 254/2/3 255/2/3
f 259/2/3 258/2/3 257/2/3
f 260/2/3 258/2/3 259/2/3
f 263/5/3 262/5/3 261/5/3
f 264/5/3 262/5/3 263/5/3
f 267/2/3 266/2/3 265/2/3
f 268/2/3 266/2/3 267/2/3
f 271/4/3 270/4/3 269/4/3
f 272/4/3 270/4/3 271/4/3
f 275/3/3 274/3/3 273/3/3
f 276/3/3 274/3/3 275/3/3
f 279/2/3 278/2/3 277/2/3
f 280/2/3 278/2/3 279/2/3
f 283/2/3 282/2/3 281/2/3
f 284/2/3 282/2/3 283/2/3
f 287/1/3 286/1/3 285/1/3
f 288/1/3 286/1/3 287/1/3
f 291/2/3 290/2/3 289/2/3
f 292/2/3 290/2/3 291/2/3
f 295/2/3 294/2/3 293/2/3
f 296/2/3 294/2/3 295/2/3
f 299/2/3 298/2/3 297/2/3
f 300/2/3 298/2/3 299/2/3
f 303/2/3 302/2/3 301/2/3
f 304/2/3 302/2/3 303/2/3
f 307/2/3 306/2/3 305/2/3
f 308/2/3 306/2/3 307/2/3
f 311/2/3 310/2/3 309/2/3
f 312/2/3 310/2/3 311/2/3
f 316/2/3 314/2/3 313/2/3
f 317/2/3 314/2/3 316/2/3
f 318/2/3 316/2/3 315/2/3
f 320/2/3 318/2/3 315/2/3
f 320/2/3 319/2/3 318/2/3
f 321/2/3 319/2/3 320/2/3
f 322/2/3 320/2/3 315/2/3
f 324/2/3 322/2/3 315/2/3
f 324/2/3 323/2/3 322/2/3
f 325/2/3 323/2/3 324/2/3
f 326/2/3 324/2/3 315/2/3
f 328/2/3 326/2/3 315/2/3
f 328/2/3 327/2/3 326/2/3
f 329/2/3 327/2/3 328/2/3
f 330/2/3 328/2/3 315/2/3
f 332/2/3 330/2/3 315/2/3
f 332/2/3 331/2/3 330/2/3
f 333/2/3 331/2/3 332/2/3
f 334/2/3 332/2/3 315/2/3
f 335/2/3 332/2/3 334/2/3
f 337/2/3 336/2/3 335/2/3
f 338/2/3 336/2/3 337/2/3
f 341/2/3 340/2/3 339/2/3
f 342/2/3 340/2/3 341/2/3
f 343/2/4 344/2/4 345/2/4
f 345/2/4 344/2/4 346/2/4
f 347/2/4 348/2/4 350/2/4
f 350/2/4 348/2/4 351/2/4
f 349/2/4 350/2/4 352/2/4
f 349/2/4 352/2/4 354/2/4
f 352/2/4 353/2/4 354/2/4
f 354/2/4 353/2/4 355/2/4
f 349/2/4 354/2/4 356/2/4
f 349/2/4 356/2/4 358/2/4
f 356/2/4 357/2/4 358/2/4
f 358/2/4 357/2/4 359/2/4
f 349/2/4 358/2/4 360/2/4
f 349/2/4 360/2/4 362/2/4
f 360/2/4 361/2/4 362/2/4
f 362/2/4 361/2/4 363/2/4
f 349/2/4 362/2/4 364/2/4
f 349/2/4 364/2/4 366/2/4
f 364/2/4 365/2/4 366/2/4
f 366/2/4 365/2/4 367/2/4
f 349/2/4 366/2/4 368/2/4
f 368/2/4 366/2/4 369/2/4
f 369/2/4 370/2/4 371/2/4
f 371/2/4 370/2/4 372/2/4
f 373/2/4 374/2/4 375/2/4
f 375/2/4 374/2/4 376/2/4
f 377/2/4 378/2/4 379/2/4
f 379/2/4 378/2/4 380/2/4
f 381/2/4 382/2/4 383/2/4
f 383/2/4 382/2/4 384/2/4
f 385/2/4 386/2/4 387/2/4
f 387/2/4 386/2/4 388/2/4
f 389/2/4 390/2/4 391/2/4
f 391/2/4 390/2/4 392/2/4
f 393/2/4 394/2/4 395/2/4
f 395/2/4 394/2/4 396/2/4
f 397/1/4 398/1/4 399/1/4
f 399/1/4 398/1/4 400/1/4
f 401/2/4 402/2/4 403/2/4
f 403/2/4 402/2/4 404/2/4
f 405/2/4 406/2/4 407/2/4
f 407/2/4 406/2/4 408/2/4
f 409/3/4 410/3/4 411/3/4
f 411/3/4 410/3/4 412/3/4
f 413/4/4 414/4/4 415/4/4
f 415/4/4 414/4/4 416/4/4
f 417/2/4 418/2/4 419/2/4
f 419/2/4 418/2/4 420/2/4
f 421/5/4 422/5/4 423/5/4
f 423/5/4 422/5/4 424/5/4
f 425/2/4 426/2/4 427/2/4
f 427/2/4 426/2/4 428/2/4
f 429/2/4 430/2/4 431/2/4
f 431/2/4 430/2/4 432/2/4
f 433/2/4 434/2/4 435/2/4
f 435/2/4 434/2/4 436/2/4
f 433/2/4 435/2/4 437/2/4
f 433/2/4 437/2/4 439/2/4
f 437/2/4 438/2/4 439/2/4
f 439/2/4 438/2/4 440/2/4
f 433/2/4 439/2/4 441/2/4
f 433/2/4 441/2/4 443/2/4
f 441/2/4 442/2/4 443/2/4
f 443/2/4 442/2/4 444/2/4
f 433/2/4 443/2/4 445/2/4
f 433/2/4 445/2/4 447/2/4
f 445/2/4 446/2/4 447/2/4
f 447/2/4 446/2/4 448/2/4
f 433/2/4 447/2/4 449/2/4
f 433/2/4 449/2/4 451/2/4
f 449/2/4 450/2/4 451/2/4
f 451/2/4 450/2/4 452/2/4
f 433/2/4 451/2/4 453/2/4
f 433/2/4 453/2/4 455/2/4
f 453/2/4 454/2/4 455/2/4
f 455/2/4 454/2/4 456/2/4
f 459/5/5 458/5/5 457/5/5
f 460/5/5 458/5/5 459/5/5
f 463/2/5 462/2/5 461/2/5
f 464/2/5 462/2/5 463/2/5
f 465/2/5 463/2/5 461/2/5
f 466/2/5 462/2/5 464/2/5
f 467/2/5 465/2/5 461/2/5
f 467/2/5 466/2/5 465/2/5
f 468/2/5 462/2/5 466/2/5
f 468/2/5 466/2/5 467/2/5
f 469/5/6 470/5/6 471/5/6
f 471/5/6 470/5/6 472/5/6
f 469/5/6 471/5/6 473/5/6
f 472/5/6 470/5/6 474/5/6
f 469/5/6 473/5/6 475/5/6
f 473/5/6 474/5/6 475/5/6
f 474/5/6 470/5/6 476/5/6
f 475/5/6 474/5/6 476/5/6
f 477/4/6 478/4/6 479/4/6
f 479/4/6 478/4/6 480/4/6
f 477/4/6 479/4/6 481/4/6
f 480/4/6 478/4/6 482/4/6
f 477/4/6 481/4/6 483/4/6
f 481/4/6 482/4/6 483/4/6
f 482/4/6 478/4/6 484/4/6
f 483/4/6 482/4/6 484/4/6
f 485/3/6 486/3/6 487/3/6
f 487/3/6 486/3/6 488/3/6
f 485/3/6 487/3/6 489/3/6
f 488/3/6 486/3/6 490/3/6
f 485/3/6 489/3/6 491/3/6
f 489/3/6 490/3/6 491/3/6
f 490/3/6 486/3/6 492/3/6
f 491/3/6 490/3/6 492/3/6
f 493/2/6 494/2/6 495/2/6
f 495/2/6 494/2/6 496/2/6
f 493/2/6 495/2/6 497/2/6
f 495/1/6 496/1/6 497/1/6
f 496/2/6 494/2/6 498/2/6
f 497/1/6 496/1/6 498/1/6
f 493/2/6 497/2/6 499/2/6
f 497/2/6 498/2/6 499/2/6
f 498/2/6 494/2/6 500/2/6
f 499/2/6 498/2/6 500/2/6
f 505/2/6 506/2/6 511/2/6
f 511/2/6 506/2/6 512/2/6
f 505/2/6 511/2/6 513/2/6
f 512/2/6 506/2/6 514/2/6
f 501/2/6 502/2/6 516/2/6
f 516/2/6 502/2/6 517/2/6
f 503/2/6 504/2/6 518/2/6
f 518/2/6 504/2/6 519/2/6
f 513/2/6 514/2/6 520/2/6
f 505/2/6 513/2/6 520/2/6
f 514/2/6 506/2/6 521/2/6
f 520/2/6 514/2/6 521/2/6
f 507/2/6 508/2/6 522/2/6
f 522/2/6 508/2/6 523/2/6
f 509/2/6 510/2/6 524/2/6
f 524/2/6 510/2/6 525/2/6
f 515/2/6 516/2/6 527/2/6
f 527/2/6 516/2/6 528/2/6
f 525/2/6 526/2/6 529/2/6
f 529/2/6 526/2/6 530/2/6
f 531/2/6 532/2/6 535/2/6
f 535/2/6 532/2/6 536/2/6
f 533/2/6 534/2/6 537/2/6
f 537/2/6 534/2/6 538/2/6
f 539/2/6 540/2/6 543/2/6
f 543/2/6 540/2/6 544/2/6
f 541/2/6 542/2/6 545/2/6
f 545/2/6 542/2/6 546/2/6
f 539/2/6 543/2/6 547/2/6
f 544/2/6 540/2/6 548/2/6
f 541/2/6 545/2/6 549/2/6
f 546/2/6 542/2/6 550/2/6
f 539/2/6 547/2/6 551/2/6
f 547/2/6 548/2/6 551/2/6
f 548/2/6 540/2/6 552/2/6
f 551/2/6 548/2/6 552/2/6
f 549/2/6 550/2/6 553/2/6
f 541/2/6 549/2/6 553/2/6
f 550/2/6 542/2/6 554/2/6
f 553/2/6 550/2/6 554/2/6
f 555/2/6 556/2/6 559/2/6
f 559/2/6 556/2/6 560/2/6
f 557/2/6 558/2/6 561/2/6
f 561/2/6 558/2/6 562/2/6
f 563/2/6 564/2/6 567/2/6
f 567/2/6 564/2/6 568/2/6
f 565/2/6 566/2/6 577/2/6
f 577/2/6 566/2/6 578/2/6
f 572/2/6 573/2/6 579/2/6
f 579/2/6 573/2/6 580/2/6
f 572/2/6 579/2/6 581/2/6
f 580/2/6 573/2/6 582/2/6
f 568/2/6 569/2/6 583/2/6
f 583/2/6 569/2/6 584/2/6
f 570/2/6 571/2/6 585/2/6
f 585/2/6 571/2/6 586/2/6
f 581/2/6 582/2/6 587/2/6
f 572/2/6 581/2/6 587/2/6
f 582/2/6 573/2/6 588/2/6
f 587/2/6 582/2/6 588/2/6
f 574/2/6 575/2/6 589/2/6
f 589/2/6 575/2/6 590/2/6
f 576/2/6 577/2/6 591/2/6
f 591/2/6 577/2/6 592/2/6
f 593/2/6 594/2/6 595/2/6
f 595/2/6 594/2/6 596/2/6
f 597/2/6 598/2/6 601/2/6
f 601/2/6 598/2/6 602/2/6
f 599/2/6 600/2/6 603/2/6
f 603/2/6 600/2/6 604/2/6
f 605/2/6 606/2/6 607/2/6
f 607/2/6 606/2/6 608/2/6
f 609/2/6 610/2/6 621/2/6
f 621/2/6 610/2/6 622/2/6
f 611/2/6 612/2/6 623/2/6
f 623/2/6 612/2/6 624/2/6
f 613/2/6 614/2/6 625/2/6
f 625/2/6 614/2/6 626/2/6
f 615/2/6 616/2/6 627/2/6
f 627/2/6 616/2/6 628/2/6
f 617/2/6 618/2/6 629/2/6
f 629/2/6 618/2/6 630/2/6
f 619/2/6 620/2/6 631/2/6
f 631/2/6 620/2/6 632/2/6
f 633/2/6 634/2/6 637/2/6
f 637/2/6 634/2/6 638/2/6
f 635/2/6 636/2/6 639/2/6
f 639/2/6 636/2/6 640/2/6
f 641/2/6 642/2/6 645/2/6
f 645/2/6 642/2/6 646/2/6
f 643/2/6 644/2/6 647/2/6
f 647/2/6 644/2/6 648/2/6
f 649/2/6 650/2/6 653/2/6
f 653/2/6 650/2/6 654/2/6
f 651/2/6 652/2/6 655/2/6
f 655/2/6 652/2/6 656/2/6
f 657/2/6 658/2/6 661/2/6
f 661/2/6 658/2/6 662/2/6
f 659/2/6 660/2/6 663/2/6
f 663/2/6 660/2/6 664/2/6
f 665/2/6 666/2/6 677/2/6
f 677/2/6 666/2/6 678/2/6
f 667/2/6 668/2/6 679/2/6
f 679/2/6 668/2/6 680/2/6
f 669/2/6 670/2/6 681/2/6
f 681/2/6 670/2/6 682/2/6
f 671/2/6 672/2/6 683/2/6
f 683/2/6 672/2/6 684/2/6
f 673/2/6 674/2/6 685/2/6
f 685/2/6 674/2/6 686/2/6
f 675/2/6 676/2/6 687/2/6
f 687/2/6 676/2/6 688/2/6
